<svg width="0" height="0" class="hidden">
<svg width="35" height="37" viewBox="0 0 35 37" fill="none" id="logo" xmlns="http://www.w3.org/2000/svg">
<path d="M31.1473 13.6477L31.1255 13.626C31.1238 13.6247 31.1224 13.6231 31.1215 13.6212L17.5006 0L3.87983 13.6209C3.87826 13.6225 3.8758 13.6256 3.8758 13.6256L3.85333 13.6474C1.77053 15.7419 0.447586 18.4725 0.0948177 21.4052C-0.25795 24.3379 0.379698 27.3044 1.90639 29.8331C3.43309 32.3619 5.76122 34.3077 8.52069 35.3612C11.2802 36.4147 14.3126 36.5157 17.136 35.6477C17.3735 35.5751 17.6275 35.5751 17.8651 35.6477C20.6882 36.5153 23.7205 36.4144 26.4798 35.3607C29.2391 34.307 31.567 32.3613 33.0936 29.8328C34.6202 27.3042 35.2579 24.3379 34.9053 21.4054C34.5526 18.4728 33.2299 15.7422 31.1473 13.6477ZM8.7232 22.6298C8.65689 22.6961 8.6043 22.7749 8.56844 22.8615C8.53257 22.948 8.5141 23.0408 8.51412 23.1346C8.53835 25.5386 9.21776 27.8904 10.4792 29.9371C10.5079 29.9835 10.5211 30.0379 10.517 30.0922C10.513 30.1465 10.4918 30.1982 10.4566 30.2399C10.4213 30.2816 10.3738 30.311 10.3209 30.324C10.2679 30.337 10.2122 30.333 10.1616 30.3124C9.21332 29.9135 8.35182 29.3336 7.62531 28.6053C6.13646 27.1162 5.29946 25.097 5.2981 22.9912C5.29675 20.8855 6.13117 18.8652 7.61812 17.3743L17.5006 7.49273L27.3826 17.3743C28.8698 18.865 29.7045 20.8853 29.703 22.9912C29.7018 25.097 28.8647 27.1162 27.3757 28.6053C26.6492 29.3336 25.7877 29.9135 24.8396 30.3124C24.7889 30.333 24.7332 30.337 24.6802 30.324C24.6273 30.311 24.5798 30.2814 24.5445 30.2399C24.5093 30.1982 24.488 30.1465 24.484 30.092C24.4799 30.0377 24.4931 29.9833 24.5218 29.9369C25.7835 27.8904 26.4633 25.5386 26.4879 23.1346C26.4879 23.0408 26.4692 22.948 26.4332 22.8613C26.3971 22.7746 26.3444 22.696 26.2779 22.6296L21.6037 17.6717C21.5571 17.6329 21.4985 17.6116 21.4378 17.6116C21.3773 17.6116 21.3186 17.6329 21.2721 17.6717C21.2255 17.7104 21.1942 17.7644 21.1833 17.824C21.1724 17.8837 21.1828 17.945 21.2127 17.9978C23.0281 21.283 21.467 26.0017 18.8637 28.6053L18.85 28.6191C18.4907 28.9745 18.0056 29.1738 17.5002 29.1736C16.9948 29.1734 16.5098 28.9738 16.1508 28.6182L16.1382 28.6053C13.5339 26.0017 11.9736 21.2835 13.7893 17.9985C13.8192 17.9457 13.8296 17.8844 13.8187 17.8247C13.8079 17.7651 13.7764 17.7111 13.7299 17.6724C13.6834 17.6336 13.6247 17.6123 13.5642 17.6123C13.5036 17.6123 13.4449 17.6336 13.3984 17.6724L8.7232 22.6298Z" fill="#F53838"/>
</svg>

<svg width="55" height="56" viewBox="0 0 55 56" fill="none" id="users" xmlns="http://www.w3.org/2000/svg">
<rect y="0.0493164" width="55" height="55" rx="27.5" fill="#FFECEC"/>
<path fill-rule="evenodd" clip-rule="evenodd" d="M27.5 26.3493C28.4548 26.3493 29.3705 25.97 30.0456 25.2949C30.7207 24.6197 31.1 23.7041 31.1 22.7493C31.1 21.7945 30.7207 20.8788 30.0456 20.2037C29.3705 19.5286 28.4548 19.1493 27.5 19.1493C26.5452 19.1493 25.6296 19.5286 24.9544 20.2037C24.2793 20.8788 23.9 21.7945 23.9 22.7493C23.9 23.7041 24.2793 24.6197 24.9544 25.2949C25.6296 25.97 26.5452 26.3493 27.5 26.3493ZM22.3987 37.1493C20.5769 37.1493 19.0422 35.6179 19.7394 33.9347C20.1616 32.9156 20.7803 31.9896 21.5603 31.2096C22.3403 30.4296 23.2663 29.8108 24.2855 29.3887C25.3046 28.9666 26.3969 28.7493 27.5 28.7493C28.6031 28.7493 29.6954 28.9666 30.7145 29.3887C31.7337 29.8108 32.6597 30.4296 33.4397 31.2096C34.2197 31.9896 34.8385 32.9156 35.2606 33.9347C35.9578 35.6179 34.4232 37.1493 32.6014 37.1493H22.3987Z" fill="#F53838"/>
</svg>

<svg width="56" height="56" viewBox="0 0 56 56" fill="none" id="location" xmlns="http://www.w3.org/2000/svg">
<rect x="0.5" y="0.0493164" width="55" height="55" rx="27.5" fill="#FFECEC"/>
<path d="M35 24.5493C35 23.6301 34.8189 22.7198 34.4672 21.8705C34.1154 21.0213 33.5998 20.2496 32.9497 19.5996C32.2997 18.9496 31.5281 18.4339 30.6788 18.0822C29.8295 17.7304 28.9193 17.5493 28 17.5493C27.0807 17.5493 26.1705 17.7304 25.3212 18.0822C24.4719 18.4339 23.7003 18.9496 23.0503 19.5996C22.4002 20.2496 21.8846 21.0213 21.5328 21.8705C21.1811 22.7198 21 23.6301 21 24.5493C21 25.9363 21.41 27.2263 22.105 28.3143H22.097C24.457 32.0093 28 37.5493 28 37.5493L33.903 28.3143H33.896C34.6164 27.1907 34.9995 25.8841 35 24.5493ZM28 27.5493C27.2044 27.5493 26.4413 27.2332 25.8787 26.6706C25.3161 26.108 25 25.345 25 24.5493C25 23.7537 25.3161 22.9906 25.8787 22.428C26.4413 21.8654 27.2044 21.5493 28 21.5493C28.7956 21.5493 29.5587 21.8654 30.1213 22.428C30.6839 22.9906 31 23.7537 31 24.5493C31 25.345 30.6839 26.108 30.1213 26.6706C29.5587 27.2332 28.7956 27.5493 28 27.5493Z" fill="#F53838"/>
</svg>

<svg width="55" height="56" viewBox="0 0 55 56" fill="none" id="server" xmlns="http://www.w3.org/2000/svg">
<rect y="0.0493164" width="55" height="55" rx="27.5" fill="#FFECEC"/>
<path d="M35.5 18.5493H19.5C18.9696 18.5493 18.4609 18.76 18.0858 19.1351C17.7107 19.5102 17.5 20.0189 17.5 20.5493V24.5493C17.5 25.0797 17.7107 25.5885 18.0858 25.9635C18.4609 26.3386 18.9696 26.5493 19.5 26.5493H35.5C36.0304 26.5493 36.5391 26.3386 36.9142 25.9635C37.2893 25.5885 37.5 25.0797 37.5 24.5493V20.5493C37.5 20.0189 37.2893 19.5102 36.9142 19.1351C36.5391 18.76 36.0304 18.5493 35.5 18.5493ZM30.5 22.5493C30.5 23.1016 30.0523 23.5493 29.5 23.5493C28.9477 23.5493 28.5 23.1016 28.5 22.5493C28.5 21.997 28.9477 21.5493 29.5 21.5493C30.0523 21.5493 30.5 21.997 30.5 22.5493ZM34.5 22.5493C34.5 23.1016 34.0523 23.5493 33.5 23.5493C32.9477 23.5493 32.5 23.1016 32.5 22.5493C32.5 21.997 32.9477 21.5493 33.5 21.5493C34.0523 21.5493 34.5 21.997 34.5 22.5493ZM35.5 28.5493H19.5C18.9696 28.5493 18.4609 28.76 18.0858 29.1351C17.7107 29.5102 17.5 30.0189 17.5 30.5493V34.5493C17.5 35.0798 17.7107 35.5885 18.0858 35.9635C18.4609 36.3386 18.9696 36.5493 19.5 36.5493H35.5C36.0304 36.5493 36.5391 36.3386 36.9142 35.9635C37.2893 35.5885 37.5 35.0798 37.5 34.5493V30.5493C37.5 30.0189 37.2893 29.5102 36.9142 29.1351C36.5391 28.76 36.0304 28.5493 35.5 28.5493ZM30.5 32.5493C30.5 33.1016 30.0523 33.5493 29.5 33.5493C28.9477 33.5493 28.5 33.1016 28.5 32.5493C28.5 31.997 28.9477 31.5493 29.5 31.5493C30.0523 31.5493 30.5 31.997 30.5 32.5493ZM34.5 32.5493C34.5 33.1016 34.0523 33.5493 33.5 33.5493C32.9477 33.5493 32.5 33.1016 32.5 32.5493C32.5 31.997 32.9477 31.5493 33.5 31.5493C34.0523 31.5493 34.5 31.997 34.5 32.5493Z" fill="#F53838"/>
</svg>

</svg>



