<svg >
<symbol width="35" height="37" viewBox="0 0 35 37"  id="logo" xmlns="http://www.w3.org/2000/svg">
<path d="M31.1473 13.6477L31.1255 13.626C31.1238 13.6247 31.1224 13.6231 31.1215 13.6212L17.5006 0L3.87983 13.6209C3.87826 13.6225 3.8758 13.6256 3.8758 13.6256L3.85333 13.6474C1.77053 15.7419 0.447586 18.4725 0.0948177 21.4052C-0.25795 24.3379 0.379698 27.3044 1.90639 29.8331C3.43309 32.3619 5.76122 34.3077 8.52069 35.3612C11.2802 36.4147 14.3126 36.5157 17.136 35.6477C17.3735 35.5751 17.6275 35.5751 17.8651 35.6477C20.6882 36.5153 23.7205 36.4144 26.4798 35.3607C29.2391 34.307 31.567 32.3613 33.0936 29.8328C34.6202 27.3042 35.2579 24.3379 34.9053 21.4054C34.5526 18.4728 33.2299 15.7422 31.1473 13.6477ZM8.7232 22.6298C8.65689 22.6961 8.6043 22.7749 8.56844 22.8615C8.53257 22.948 8.5141 23.0408 8.51412 23.1346C8.53835 25.5386 9.21776 27.8904 10.4792 29.9371C10.5079 29.9835 10.5211 30.0379 10.517 30.0922C10.513 30.1465 10.4918 30.1982 10.4566 30.2399C10.4213 30.2816 10.3738 30.311 10.3209 30.324C10.2679 30.337 10.2122 30.333 10.1616 30.3124C9.21332 29.9135 8.35182 29.3336 7.62531 28.6053C6.13646 27.1162 5.29946 25.097 5.2981 22.9912C5.29675 20.8855 6.13117 18.8652 7.61812 17.3743L17.5006 7.49273L27.3826 17.3743C28.8698 18.865 29.7045 20.8853 29.703 22.9912C29.7018 25.097 28.8647 27.1162 27.3757 28.6053C26.6492 29.3336 25.7877 29.9135 24.8396 30.3124C24.7889 30.333 24.7332 30.337 24.6802 30.324C24.6273 30.311 24.5798 30.2814 24.5445 30.2399C24.5093 30.1982 24.488 30.1465 24.484 30.092C24.4799 30.0377 24.4931 29.9833 24.5218 29.9369C25.7835 27.8904 26.4633 25.5386 26.4879 23.1346C26.4879 23.0408 26.4692 22.948 26.4332 22.8613C26.3971 22.7746 26.3444 22.696 26.2779 22.6296L21.6037 17.6717C21.5571 17.6329 21.4985 17.6116 21.4378 17.6116C21.3773 17.6116 21.3186 17.6329 21.2721 17.6717C21.2255 17.7104 21.1942 17.7644 21.1833 17.824C21.1724 17.8837 21.1828 17.945 21.2127 17.9978C23.0281 21.283 21.467 26.0017 18.8637 28.6053L18.85 28.6191C18.4907 28.9745 18.0056 29.1738 17.5002 29.1736C16.9948 29.1734 16.5098 28.9738 16.1508 28.6182L16.1382 28.6053C13.5339 26.0017 11.9736 21.2835 13.7893 17.9985C13.8192 17.9457 13.8296 17.8844 13.8187 17.8247C13.8079 17.7651 13.7764 17.7111 13.7299 17.6724C13.6834 17.6336 13.6247 17.6123 13.5642 17.6123C13.5036 17.6123 13.4449 17.6336 13.3984 17.6724L8.7232 22.6298Z"/>
</symbol>

<symbol width="55" height="56" viewBox="0 0 55 56" fill="none" id="users" xmlns="http://www.w3.org/2000/svg">
<rect y="0.0493164" width="55" height="55" rx="27.5" fill="#FFECEC"/>
<path fill-rule="evenodd" clip-rule="evenodd" d="M27.5 26.3493C28.4548 26.3493 29.3705 25.97 30.0456 25.2949C30.7207 24.6197 31.1 23.7041 31.1 22.7493C31.1 21.7945 30.7207 20.8788 30.0456 20.2037C29.3705 19.5286 28.4548 19.1493 27.5 19.1493C26.5452 19.1493 25.6296 19.5286 24.9544 20.2037C24.2793 20.8788 23.9 21.7945 23.9 22.7493C23.9 23.7041 24.2793 24.6197 24.9544 25.2949C25.6296 25.97 26.5452 26.3493 27.5 26.3493ZM22.3987 37.1493C20.5769 37.1493 19.0422 35.6179 19.7394 33.9347C20.1616 32.9156 20.7803 31.9896 21.5603 31.2096C22.3403 30.4296 23.2663 29.8108 24.2855 29.3887C25.3046 28.9666 26.3969 28.7493 27.5 28.7493C28.6031 28.7493 29.6954 28.9666 30.7145 29.3887C31.7337 29.8108 32.6597 30.4296 33.4397 31.2096C34.2197 31.9896 34.8385 32.9156 35.2606 33.9347C35.9578 35.6179 34.4232 37.1493 32.6014 37.1493H22.3987Z" fill="#F53838"/>
</symbol>

<symbol width="55" height="56" viewBox="0 0 55 56" fill="none" id="server"  xmlns="http://www.w3.org/2000/svg">
<rect y="0.0493164" width="55" height="55" rx="27.5" fill="#FFECEC"/>
<path d="M35.5 18.5493H19.5C18.9696 18.5493 18.4609 18.76 18.0858 19.1351C17.7107 19.5102 17.5 20.0189 17.5 20.5493V24.5493C17.5 25.0797 17.7107 25.5885 18.0858 25.9635C18.4609 26.3386 18.9696 26.5493 19.5 26.5493H35.5C36.0304 26.5493 36.5391 26.3386 36.9142 25.9635C37.2893 25.5885 37.5 25.0797 37.5 24.5493V20.5493C37.5 20.0189 37.2893 19.5102 36.9142 19.1351C36.5391 18.76 36.0304 18.5493 35.5 18.5493ZM30.5 22.5493C30.5 23.1016 30.0523 23.5493 29.5 23.5493C28.9477 23.5493 28.5 23.1016 28.5 22.5493C28.5 21.997 28.9477 21.5493 29.5 21.5493C30.0523 21.5493 30.5 21.997 30.5 22.5493ZM34.5 22.5493C34.5 23.1016 34.0523 23.5493 33.5 23.5493C32.9477 23.5493 32.5 23.1016 32.5 22.5493C32.5 21.997 32.9477 21.5493 33.5 21.5493C34.0523 21.5493 34.5 21.997 34.5 22.5493ZM35.5 28.5493H19.5C18.9696 28.5493 18.4609 28.76 18.0858 29.1351C17.7107 29.5102 17.5 30.0189 17.5 30.5493V34.5493C17.5 35.0798 17.7107 35.5885 18.0858 35.9635C18.4609 36.3386 18.9696 36.5493 19.5 36.5493H35.5C36.0304 36.5493 36.5391 36.3386 36.9142 35.9635C37.2893 35.5885 37.5 35.0798 37.5 34.5493V30.5493C37.5 30.0189 37.2893 29.5102 36.9142 29.1351C36.5391 28.76 36.0304 28.5493 35.5 28.5493ZM30.5 32.5493C30.5 33.1016 30.0523 33.5493 29.5 33.5493C28.9477 33.5493 28.5 33.1016 28.5 32.5493C28.5 31.997 28.9477 31.5493 29.5 31.5493C30.0523 31.5493 30.5 31.997 30.5 32.5493ZM34.5 32.5493C34.5 33.1016 34.0523 33.5493 33.5 33.5493C32.9477 33.5493 32.5 33.1016 32.5 32.5493C32.5 31.997 32.9477 31.5493 33.5 31.5493C34.0523 31.5493 34.5 31.997 34.5 32.5493Z" fill="#F53838"/>
</symbol>

<symbol width="25" height="25" viewBox="0 0 25 25" fill="none" id="selected" xmlns="http://www.w3.org/2000/svg">
<path d="M12.1215 2.54932C6.60746 2.54932 2.12146 7.03532 2.12146 12.5493C2.12146 18.0633 6.60746 22.5493 12.1215 22.5493C17.6355 22.5493 22.1215 18.0633 22.1215 12.5493C22.1215 7.03532 17.6355 2.54932 12.1215 2.54932ZM10.1225 16.9623L7.11691 13.9632C6.72616 13.5733 6.72537 12.9405 7.11515 12.5496C7.50517 12.1585 8.13847 12.1578 8.52939 12.548L10.1205 14.1363L14.7075 9.54932C15.0979 9.15885 15.731 9.15885 16.1215 9.54932C16.5119 9.93978 16.5119 10.5729 16.1215 10.9633L10.1225 16.9623Z" fill="#2FAB73"/>
</symbol>

<symbol width="56" height="56" viewBox="0 0 56 56" fill="none" id="location" xmlns="http://www.w3.org/2000/svg">
<rect x="0.5" y="0.0493164" width="55" height="55" rx="27.5" fill="#FFECEC"/>
<path d="M35 24.5493C35 23.6301 34.8189 22.7198 34.4672 21.8705C34.1154 21.0213 33.5998 20.2496 32.9497 19.5996C32.2997 18.9496 31.5281 18.4339 30.6788 18.0822C29.8295 17.7304 28.9193 17.5493 28 17.5493C27.0807 17.5493 26.1705 17.7304 25.3212 18.0822C24.4719 18.4339 23.7003 18.9496 23.0503 19.5996C22.4002 20.2496 21.8846 21.0213 21.5328 21.8705C21.1811 22.7198 21 23.6301 21 24.5493C21 25.9363 21.41 27.2263 22.105 28.3143H22.097C24.457 32.0093 28 37.5493 28 37.5493L33.903 28.3143H33.896C34.6164 27.1907 34.9995 25.8841 35 24.5493ZM28 27.5493C27.2044 27.5493 26.4413 27.2332 25.8787 26.6706C25.3161 26.108 25 25.345 25 24.5493C25 23.7537 25.3161 22.9906 25.8787 22.428C26.4413 21.8654 27.2044 21.5493 28 21.5493C28.7956 21.5493 29.5587 21.8654 30.1213 22.428C30.6839 22.9906 31 23.7537 31 24.5493C31 25.345 30.6839 26.108 30.1213 26.6706C29.5587 27.2332 28.7956 27.5493 28 27.5493Z" fill="#F53838"/>
</symbol>

<symbol width="25" height="25" viewBox="0 0 25 25" fill="none" id="checked" xmlns="http://www.w3.org/2000/svg">
<path d="M11.4487 17.2796C11.3174 17.2798 11.1874 17.2542 11.0661 17.2041C10.9448 17.154 10.8345 17.0804 10.7417 16.9876L6.4997 12.7446C6.40412 12.6524 6.32786 12.5421 6.27537 12.4201C6.22288 12.2982 6.1952 12.167 6.19395 12.0342C6.19271 11.9014 6.21792 11.7697 6.26811 11.6468C6.3183 11.5238 6.39248 11.4121 6.4863 11.3182C6.58013 11.2242 6.69173 11.1499 6.81458 11.0995C6.93744 11.0492 7.0691 11.0238 7.20188 11.0248C7.33466 11.0259 7.4659 11.0534 7.58794 11.1057C7.70998 11.158 7.82038 11.2341 7.9127 11.3296L11.4477 14.8646L17.8127 8.50156C18.0002 8.31392 18.2546 8.20845 18.5198 8.20836C18.7851 8.20827 19.0396 8.31355 19.2272 8.50106C19.4148 8.68857 19.5203 8.94294 19.5204 9.20821C19.5205 9.47348 19.4152 9.72792 19.2277 9.91556L12.1557 16.9876C12.0629 17.0804 11.9526 17.154 11.8313 17.2041C11.71 17.2542 11.58 17.2798 11.4487 17.2796Z" fill="#2FAB73"/>
</symbol>

<symbol width="16" height="17" viewBox="0 0 16 17" fill="none" id="star" xmlns="http://www.w3.org/2000/svg">
<path d="M14.1891 6.41802L10.2219 5.84146L8.44844 2.24615C8.4 2.14771 8.32031 2.06802 8.22187 2.01959C7.975 1.89771 7.675 1.99927 7.55156 2.24615L5.77812 5.84146L1.81094 6.41802C1.70156 6.43365 1.60156 6.48521 1.525 6.56334C1.43244 6.65847 1.38143 6.78646 1.38319 6.91918C1.38495 7.0519 1.43933 7.1785 1.53437 7.27115L4.40469 10.0696L3.72656 14.0211C3.71066 14.1131 3.72083 14.2076 3.75592 14.294C3.79102 14.3805 3.84963 14.4554 3.92511 14.5102C4.00059 14.565 4.08992 14.5976 4.18297 14.6042C4.27602 14.6108 4.36907 14.5913 4.45156 14.5477L8 12.6821L11.5484 14.5477C11.6453 14.5993 11.7578 14.6165 11.8656 14.5977C12.1375 14.5508 12.3203 14.293 12.2734 14.0211L11.5953 10.0696L14.4656 7.27115C14.5437 7.19459 14.5953 7.09459 14.6109 6.98521C14.6531 6.71177 14.4625 6.45865 14.1891 6.41802Z" fill="#FEA250"/>
</symbol>

<symbol width="60" height="61" viewBox="0 0 60 61" fill="none" id="left" xmlns="http://www.w3.org/2000/svg">
<circle cx="30" cy="30.2529" r="29" stroke="#F53838" stroke-width="2"/>
<path d="M38.75 29.0029H23.925L28.4625 23.5529C28.6747 23.2976 28.7768 22.9685 28.7463 22.638C28.7158 22.3075 28.5553 22.0026 28.3 21.7904C28.0447 21.5782 27.7156 21.4762 27.3851 21.5066C27.0546 21.5371 26.7497 21.6976 26.5375 21.9529L20.2875 29.4529C20.2455 29.5126 20.2078 29.5752 20.175 29.6404C20.175 29.7029 20.175 29.7404 20.0875 29.8029C20.0308 29.9462 20.0012 30.0988 20 30.2529C20.0012 30.407 20.0308 30.5596 20.0875 30.7029C20.0875 30.7654 20.0875 30.8029 20.175 30.8654C20.2078 30.9306 20.2455 30.9933 20.2875 31.0529L26.5375 38.5529C26.655 38.694 26.8022 38.8075 26.9686 38.8853C27.1349 38.963 27.3164 39.0032 27.5 39.0029C27.7921 39.0035 28.0751 38.9018 28.3 38.7154C28.4266 38.6105 28.5312 38.4816 28.6079 38.3362C28.6846 38.1907 28.7318 38.0316 28.7469 37.8679C28.762 37.7042 28.7447 37.5391 28.6959 37.3821C28.6471 37.2251 28.5678 37.0792 28.4625 36.9529L23.925 31.5029H38.75C39.0815 31.5029 39.3995 31.3712 39.6339 31.1368C39.8683 30.9024 40 30.5844 40 30.2529C40 29.9214 39.8683 29.6034 39.6339 29.369C39.3995 29.1346 39.0815 29.0029 38.75 29.0029Z" fill="#F53838"/>
</symbol>

<symbol width="60" height="61" viewBox="0 0 60 61" fill="none" id="right" xmlns="http://www.w3.org/2000/svg">
<circle cx="30" cy="30.2529" r="29" stroke="#F53838" stroke-width="2"/>
<path d="M38.75 29.0029H23.925L28.4625 23.5529C28.6747 23.2976 28.7768 22.9685 28.7463 22.638C28.7158 22.3075 28.5553 22.0026 28.3 21.7904C28.0447 21.5782 27.7156 21.4762 27.3851 21.5066C27.0546 21.5371 26.7497 21.6976 26.5375 21.9529L20.2875 29.4529C20.2455 29.5126 20.2078 29.5752 20.175 29.6404C20.175 29.7029 20.175 29.7404 20.0875 29.8029C20.0308 29.9462 20.0012 30.0988 20 30.2529C20.0012 30.407 20.0308 30.5596 20.0875 30.7029C20.0875 30.7654 20.0875 30.8029 20.175 30.8654C20.2078 30.9306 20.2455 30.9933 20.2875 31.0529L26.5375 38.5529C26.655 38.694 26.8022 38.8075 26.9686 38.8853C27.1349 38.963 27.3164 39.0032 27.5 39.0029C27.7921 39.0035 28.0751 38.9018 28.3 38.7154C28.4266 38.6105 28.5312 38.4816 28.6079 38.3362C28.6846 38.1907 28.7318 38.0316 28.7469 37.8679C28.762 37.7042 28.7447 37.5391 28.6959 37.3821C28.6471 37.2251 28.5678 37.0792 28.4625 36.9529L23.925 31.5029H38.75C39.0815 31.5029 39.3995 31.3712 39.6339 31.1368C39.8683 30.9024 40 30.5844 40 30.2529C40 29.9214 39.8683 29.6034 39.6339 29.369C39.3995 29.1346 39.0815 29.0029 38.75 29.0029Z" fill="#F53838"/>
</symbol>

<symbol width="70" height="71" viewBox="0 0 70 71" fill="none" id="facebook" xmlns="http://www.w3.org/2000/svg">
<circle cx="34.8001" cy="22.3805" r="15.7999" fill="#F53838"/>
<path d="M34.8 5.58057C25.5215 5.58057 18 13.1021 18 22.3806C18 31.6591 25.5215 39.1806 34.8 39.1806C44.0785 39.1806 51.6 31.6591 51.6 22.3806C51.6 13.1021 44.0785 5.58057 34.8 5.58057ZM38.7795 17.1901H36.2543C35.955 17.1901 35.6225 17.5838 35.6225 18.1071V19.9306H38.7813L38.3035 22.5311H35.6225V30.3378H32.6423V22.5311H29.9385V19.9306H32.6423V18.4011C32.6423 16.2066 34.1648 14.4233 36.2543 14.4233H38.7795V17.1901Z" fill="white"/>
</symbol>

<symbol width="71" height="71" viewBox="0 0 71 71" fill="none" id="twitter" xmlns="http://www.w3.org/2000/svg">
<circle cx="35.4" cy="22.3805" r="16.2999" fill="#F53838"/>
<path d="M35.4 5.58057C26.1215 5.58057 18.6 13.1021 18.6 22.3806C18.6 31.6591 26.1215 39.1806 35.4 39.1806C44.6785 39.1806 52.2 31.6591 52.2 22.3806C52.2 13.1021 44.6785 5.58057 35.4 5.58057ZM42.2337 19.3426C42.2407 19.4861 42.2425 19.6296 42.2425 19.7696C42.2425 24.1446 38.9157 29.1863 32.8292 29.1863C31.0307 29.1893 29.2697 28.6728 27.7577 27.6988C28.015 27.7303 28.2792 27.7426 28.547 27.7426C30.0975 27.7426 31.5237 27.2158 32.656 26.3268C31.966 26.3133 31.2974 26.0848 30.7434 25.6732C30.1894 25.2617 29.7777 24.6875 29.5655 24.0308C30.061 24.125 30.5715 24.1053 31.0582 23.9731C30.3093 23.8216 29.6358 23.4158 29.152 22.8245C28.6681 22.2331 28.4037 21.4926 28.4035 20.7286V20.6883C28.8497 20.9351 29.3607 21.0856 29.9032 21.1031C29.2011 20.6357 28.7041 19.9177 28.5138 19.0961C28.3235 18.2744 28.4543 17.411 28.8795 16.6826C29.7106 17.7046 30.7472 18.5406 31.922 19.1366C33.0968 19.7326 34.3836 20.0752 35.6992 20.1423C35.532 19.4324 35.604 18.687 35.904 18.0222C36.204 17.3574 36.7153 16.8103 37.3584 16.466C38.0014 16.1218 38.7402 15.9996 39.4598 16.1185C40.1794 16.2374 40.8396 16.5907 41.3377 17.1236C42.0783 16.9771 42.7884 16.7054 43.4377 16.3203C43.1909 17.0871 42.6742 17.7381 41.9835 18.1526C42.6395 18.0736 43.28 17.8972 43.884 17.6293C43.4403 18.2941 42.8815 18.8743 42.2337 19.3426Z" fill="white"/>
</symbol>

<symbol width="70" height="71" viewBox="0 0 70 71" fill="none" id="instagram" xmlns="http://www.w3.org/2000/svg">
<circle cx="35" cy="22.3805" r="16.2999" fill="#F53838"/>
<path d="M40.25 22.3806C40.25 23.773 39.6968 25.1083 38.7123 26.0929C37.7277 27.0774 36.3923 27.6306 35 27.6306C33.6076 27.6306 32.2722 27.0774 31.2876 26.0929C30.3031 25.1083 29.75 23.773 29.75 22.3806C29.75 22.0813 29.7815 21.7891 29.8357 21.5056H28V28.5003C28 28.9868 28.3937 29.3806 28.8802 29.3806H41.1215C41.3546 29.3801 41.5781 29.2872 41.7428 29.1221C41.9075 28.9571 42 28.7335 42 28.5003V21.5056H40.1642C40.2185 21.7891 40.25 22.0813 40.25 22.3806ZM35 25.8806C35.4597 25.8805 35.9149 25.7898 36.3396 25.6137C36.7643 25.4377 37.1502 25.1797 37.4752 24.8546C37.8002 24.5294 38.058 24.1434 38.2338 23.7186C38.4096 23.2938 38.5001 22.8386 38.5 22.3788C38.4998 21.9191 38.4092 21.4639 38.2331 21.0392C38.0571 20.6145 37.7991 20.2286 37.474 19.9036C37.1488 19.5786 36.7628 19.3208 36.338 19.145C35.9132 18.9691 35.4579 18.8787 34.9982 18.8788C34.0697 18.8791 33.1793 19.2481 32.523 19.9048C31.8666 20.5615 31.498 21.4521 31.4982 22.3806C31.4984 23.3091 31.8675 24.1994 32.5242 24.8558C33.1809 25.5122 34.0715 25.8808 35 25.8806ZM39.2 18.7056H41.2982C41.4376 18.7056 41.5713 18.6503 41.6701 18.5519C41.7688 18.4535 41.8245 18.32 41.825 18.1806V16.0823C41.825 15.9426 41.7695 15.8086 41.6707 15.7098C41.5719 15.6111 41.4379 15.5556 41.2982 15.5556H39.2C39.0603 15.5556 38.9263 15.6111 38.8275 15.7098C38.7287 15.8086 38.6732 15.9426 38.6732 16.0823V18.1806C38.675 18.4693 38.9112 18.7056 39.2 18.7056ZM35 5.58057C30.5443 5.58057 26.2712 7.35056 23.1206 10.5012C19.9699 13.6518 18.2 17.9249 18.2 22.3806C18.2 26.8362 19.9699 31.1094 23.1206 34.26C26.2712 37.4106 30.5443 39.1806 35 39.1806C37.2062 39.1806 39.3908 38.746 41.429 37.9017C43.4673 37.0575 45.3193 35.82 46.8794 34.26C48.4394 32.6999 49.6769 30.8479 50.5211 28.8097C51.3654 26.7714 51.8 24.5868 51.8 22.3806C51.8 20.1744 51.3654 17.9898 50.5211 15.9515C49.6769 13.9132 48.4394 12.0612 46.8794 10.5012C45.3193 8.94115 43.4673 7.70367 41.429 6.85939C39.3908 6.01511 37.2062 5.58057 35 5.58057ZM43.75 29.1863C43.75 30.2556 42.875 31.1306 41.8057 31.1306H28.1942C27.125 31.1306 26.25 30.2556 26.25 29.1863V15.5748C26.25 14.5056 27.125 13.6306 28.1942 13.6306H41.8057C42.875 13.6306 43.75 14.5056 43.75 15.5748V29.1863Z" fill="white"/>
</symbol>

</svg>



